<svg xmlns="http://www.w3.org/2000/svg" version="1.1" xmlns:xlink="http://www.w3.org/1999/xlink" xmlns:svgjs="http://svgjs.dev/svgjs" width="1500" height="306" viewBox="0 0 1500 306"><g transform="matrix(1,0,0,1,-0.9090909090909918,-0.6006206620161834)"><svg viewBox="0 0 396 81" data-background-color="#929395" preserveAspectRatio="xMidYMid meet" height="306" width="1500" xmlns="http://www.w3.org/2000/svg" xmlns:xlink="http://www.w3.org/1999/xlink"><g id="tight-bounds" transform="matrix(1,0,0,1,0.2400000000000091,0.1589878222983998)"><svg viewBox="0 0 395.52 80.68202435540321" height="80.68202435540321" width="395.52"><g><svg viewBox="0 0 539.8164632539597 110.11702324965515" height="80.68202435540321" width="395.52"><g transform="matrix(1,0,0,1,144.2964632539597,34.0277585213793)"><svg viewBox="0 0 395.52 42.061506206896546" height="42.061506206896546" width="395.52"><g id="textblocktransform"><svg viewBox="0 0 395.52 42.061506206896546" height="42.061506206896546" width="395.52" id="textblock"><g><svg viewBox="0 0 395.52 42.061506206896546" height="42.061506206896546" width="395.52"><g transform="matrix(1,0,0,1,0,0)"><svg width="395.52" viewBox="1.95 -36.84 353.97 37.650000000000006" height="42.061506206896546" data-palette-color="#375a82"><path d="M33.5-16.21L33.5-14.04 30.96-13.79Q30.42-13.77 30.16-13.45 29.91-13.13 29.91-12.74L29.91-12.74 29.91-1.2Q29.91-1.2 28.41-0.7 26.9-0.2 24.51 0.31 22.12 0.81 19.41 0.81L19.41 0.81Q15.23 0.81 11.99-0.63 8.74-2.08 6.51-4.55 4.27-7.03 3.11-10.21 1.95-13.38 1.95-16.85L1.95-16.85Q1.95-22.09 4.14-26.04 6.32-29.98 10.39-32.17 14.45-34.35 20.04-34.35L20.04-34.35Q22.61-34.35 24.78-33.89 26.95-33.42 29.03-32.86L29.03-32.86 29.86-32.64 29.86-24.56 26.86-24.56 26.05-29.05Q25.98-29.49 25.68-29.8 25.39-30.1 25.05-30.25L25.05-30.25Q24.95-30.27 24.76-30.37L24.76-30.37Q24-30.71 22.72-31.13 21.44-31.54 19.85-31.54L19.85-31.54Q16.26-31.54 13.5-29.87 10.74-28.2 9.19-24.98 7.64-21.75 7.64-17.09L7.64-17.09Q7.64-9.89 11.12-5.94 14.6-2 20.46-2L20.46-2Q22.12-2 23.4-2.38 24.68-2.76 24.85-2.76L24.85-2.76 24.85-12.74Q24.85-13.13 24.6-13.45 24.34-13.77 23.8-13.79L23.8-13.79 20.46-14.04 20.46-16.21 33.5-16.21ZM57.54-5.54L57.54-2.49Q55.44-1.2 53.01-0.29 50.58 0.61 48.04 0.61L48.04 0.61Q45.02 0.61 42.37-0.74 39.72-2.1 38.08-4.86 36.45-7.62 36.45-11.79L36.45-11.79Q36.45-15.7 37.96-18.6 39.48-21.51 42.14-23.11 44.8-24.71 48.19-24.71L48.19-24.71Q52.85-24.71 55.2-21.81 57.54-18.92 57.54-14.45L57.54-14.45Q57.54-14.21 57.54-13.81 57.54-13.4 57.49-13.06L57.49-13.06 41.28-13.06Q41.28-11.16 41.68-9.27 42.09-7.37 43.04-5.83 43.99-4.3 45.6-3.37 47.21-2.44 49.63-2.44L49.63-2.44Q51.78-2.44 53.82-3.43 55.86-4.42 57.54-5.54L57.54-5.54ZM41.55-15.31L52.54-15.31 52.54-16.41Q52.54-18.87 51.35-20.56 50.17-22.24 47.68-22.24L47.68-22.24Q45.21-22.24 43.48-20.39 41.75-18.53 41.55-15.31L41.55-15.31ZM85.3-13.21L85.3-13.21Q85.3-9.45 83.81-6.46 82.32-3.47 79.15-1.73 75.97 0 70.94 0L70.94 0 63.74 0 63.74-33.25 59.96-33.25 59.96-34.91 66.4-36.84 68.4-36.84 68.4-22.85Q69.26-23.27 71.17-23.99 73.09-24.71 75.29-24.71L75.29-24.71Q78.58-24.71 80.81-23.12 83.03-21.53 84.16-18.91 85.3-16.28 85.3-13.21ZM80.2-12.21L80.2-12.21Q80.2-16.94 78.19-19.35 76.19-21.75 72.55-21.75L72.55-21.75Q71.72-21.75 70.44-21.48 69.16-21.22 68.4-20.95L68.4-20.95 68.4-2.39Q68.4-2.39 69.27-2.37 70.14-2.34 70.84-2.34L70.84-2.34Q75.29-2.34 77.74-4.54 80.2-6.74 80.2-12.21ZM106.05-23.95L106.05-18.99 104.09-18.99Q103.63-19.56 102.98-19.96 102.34-20.36 101.41-20.36L101.41-20.36Q100.21-20.36 98.95-19.53 97.7-18.7 96.4-17.26L96.4-17.26 96.4-3.2Q96.4-2.15 97.45-2.1L97.45-2.1 100.75-1.95 100.75 0 88.25 0 88.25-1.9 90.72-2.1Q91.15-2.15 91.46-2.44 91.76-2.73 91.76-3.2L91.76-3.2 91.76-20.56 88.15-20.56 88.15-22.19 94.35-24.1 96.4-24.1 96.4-19.65Q97.14-20.46 98.23-21.66 99.33-22.85 100.58-23.78 101.82-24.71 103-24.71L103-24.71Q103.78-24.71 104.68-24.46 105.58-24.22 106.05-23.95L106.05-23.95ZM117.2-3.86L117.2-3.86Q117.2-2.25 116.09-1.12 114.98 0 113.37 0L113.37 0Q111.73 0 110.62-1.12 109.51-2.25 109.51-3.86L109.51-3.86Q109.51-5.47 110.62-6.58 111.73-7.69 113.37-7.69L113.37-7.69Q114.98-7.69 116.09-6.58 117.2-5.47 117.2-3.86ZM187.27-2.15L187.27 0 174.64 0 174.64-2.15 177.3-2.34Q177.84-2.39 178.12-2.73 178.4-3.08 178.4-3.44L178.4-3.44 178.4-31.01 166.9 0 164.41 0 153.31-30.54 153.31-3.44Q153.31-3.08 153.59-2.73 153.87-2.39 154.4-2.34L154.4-2.34 157.26-2.15 157.26 0 146.44 0 146.44-2.15 149.3-2.34Q149.84-2.39 150.09-2.73 150.35-3.08 150.35-3.44L150.35-3.44 150.35-30.1Q150.35-30.47 150.09-30.82 149.84-31.18 149.3-31.2L149.3-31.2 146.44-31.4 146.44-33.54 157.65-33.54 157.65-32.2 166.71-7.64 175.77-32.06 175.77-33.54 187.27-33.54 187.27-31.4 184.56-31.2Q184.02-31.18 183.74-30.82 183.46-30.47 183.46-30.1L183.46-30.1 183.46-3.44Q183.46-3.08 183.74-2.73 184.02-2.39 184.56-2.34L184.56-2.34 187.27-2.15ZM216.19-1.95L216.19 0 208.26 0 208.26-2.86Q207.4-2.2 206.09-1.39 204.77-0.59 203.25 0.01 201.74 0.61 200.25 0.61L200.25 0.61Q197.03 0.61 195.19-1.33 193.34-3.27 193.34-7.5L193.34-7.5 193.34-21.04 189.85-21.04 189.85-22.75 196-24.71 198-24.71 198-8.45Q198-5.79 199.09-4.3 200.18-2.81 202.84-2.81L202.84-2.81Q204.38-2.81 205.87-3.33 207.36-3.86 208.26-4.3L208.26-4.3 208.26-21.04 204.74-21.04 204.74-22.75 210.85-24.71 212.9-24.71 212.9-3.2Q212.9-2.73 213.23-2.44 213.56-2.15 214-2.1L214-2.1 216.19-1.95ZM236.28-23.95L236.28-18.99 234.33-18.99Q233.87-19.56 233.22-19.96 232.57-20.36 231.65-20.36L231.65-20.36Q230.45-20.36 229.19-19.53 227.93-18.7 226.64-17.26L226.64-17.26 226.64-3.2Q226.64-2.15 227.69-2.1L227.69-2.1 230.99-1.95 230.99 0 218.49 0 218.49-1.9 220.95-2.1Q221.39-2.15 221.7-2.44 222-2.73 222-3.2L222-3.2 222-20.56 218.39-20.56 218.39-22.19 224.59-24.1 226.64-24.1 226.64-19.65Q227.37-20.46 228.47-21.66 229.57-22.85 230.81-23.78 232.06-24.71 233.23-24.71L233.23-24.71Q234.01-24.71 234.92-24.46 235.82-24.22 236.28-23.95L236.28-23.95ZM261.4-1.95L261.4 0 254.01 0 253.35-2.95Q253.35-2.95 252.6-2.42 251.86-1.88 250.64-1.17 249.42-0.46 247.94 0.07 246.46 0.61 245 0.61L245 0.61Q242.29 0.61 240.39-1.2 238.5-3 238.5-6.15L238.5-6.15Q238.5-7.54 239-8.74 239.5-9.94 241.01-11.02 242.51-12.11 245.47-13.15 248.44-14.18 253.35-15.26L253.35-15.26 253.35-17.41Q253.35-22.34 248.68-22.34L248.68-22.34Q247.39-22.34 246.45-22.09 245.51-21.85 245.14-21.7L245.14-21.7 245.14-17.36 241.51-17.36Q240.82-17.36 240.24-17.61 239.65-17.87 239.65-18.8L239.65-18.8Q239.65-20.85 241.21-22.16 242.78-23.46 245.18-24.08 247.58-24.71 250.05-24.71L250.05-24.71Q253.15-24.71 254.86-23.74 256.57-22.78 257.25-21.08 257.94-19.38 257.94-17.21L257.94-17.21 257.94-3.2Q257.94-2.73 258.24-2.44 258.55-2.15 258.99-2.1L258.99-2.1 261.4-1.95ZM253.35-4.71L253.35-4.71 253.35-13.35Q249.98-12.52 247.99-11.68 246-10.84 245.02-10 244.04-9.16 243.74-8.29 243.43-7.42 243.43-6.49L243.43-6.49Q243.43-4.96 244.42-3.65 245.41-2.34 247.19-2.34L247.19-2.34Q248.2-2.34 249.27-2.7 250.34-3.05 251.27-3.53 252.2-4 252.77-4.36 253.35-4.71 253.35-4.71ZM278.88-3.05L278.88-3.05 278.88-1.05Q278.88-1.05 277.94-0.63 277-0.22 275.48 0.2 273.95 0.61 272.14 0.61L272.14 0.61Q269.34 0.61 268.05-0.72 266.77-2.05 266.77-5L266.77-5 266.77-21.61 263.57-21.61 263.57-23.24 266.99-24.85 269.24-30.15 271.43-30.15 271.43-24.1 278.49-24.1 278.49-21.61 271.43-21.61 271.43-7.64Q271.43-4.66 272.44-3.43 273.44-2.2 275.44-2.2L275.44-2.2Q276.9-2.2 277.89-2.62 278.88-3.05 278.88-3.05ZM290.11-32.35L290.11-32.35Q290.11-31.08 289.23-30.16 288.35-29.25 287.08-29.25L287.08-29.25Q285.81-29.25 284.9-30.16 283.98-31.08 283.98-32.35L283.98-32.35Q283.98-33.64 284.9-34.52 285.81-35.4 287.08-35.4L287.08-35.4Q288.35-35.4 289.23-34.52 290.11-33.64 290.11-32.35ZM292.67-1.95L292.67 0 280.93 0 280.93-1.95 283.37-2.1Q284.42-2.17 284.42-3.2L284.42-3.2 284.42-21.04 280.98-21.04 280.98-22.8 287.08-24.71 289.06-24.71 289.06-3.2Q289.06-2.73 289.36-2.44 289.67-2.15 290.11-2.1L290.11-2.1 292.67-1.95ZM321.28-1.95L321.28 0 313.42 0 313.42-2.66Q311.71-1.34 309.78-0.37 307.86 0.61 305.68 0.61L305.68 0.61Q303.17 0.61 301.35-0.45 299.53-1.51 298.37-3.27 297.21-5.03 296.65-7.15 296.09-9.28 296.09-11.4L296.09-11.4Q296.09-14.79 297.48-17.83 298.87-20.87 301.7-22.79 304.54-24.71 308.83-24.71L308.83-24.71Q310.03-24.71 311.43-24.48 312.84-24.24 313.42-24.1L313.42-24.1 313.42-33.25 309.64-33.25 309.64-34.91 316.08-36.84 318.09-36.84 318.09-3.2Q318.09-2.17 319.14-2.1L319.14-2.1 321.28-1.95ZM313.42-4.54L313.42-4.54 313.42-21.56Q312.79-21.78 311.53-22.03 310.27-22.29 309.17-22.29L309.17-22.29Q305.46-22.29 303.24-19.54 301.02-16.8 301.02-12.26L301.02-12.26Q301.02-8.18 302.92-5.49 304.83-2.81 308.27-2.81L308.27-2.81Q309.78-2.81 311.12-3.38 312.45-3.96 313.42-4.54ZM333.46-32.35L333.46-32.35Q333.46-31.08 332.58-30.16 331.71-29.25 330.44-29.25L330.44-29.25Q329.17-29.25 328.25-30.16 327.34-31.08 327.34-32.35L327.34-32.35Q327.34-33.64 328.25-34.52 329.17-35.4 330.44-35.4L330.44-35.4Q331.71-35.4 332.58-34.52 333.46-33.64 333.46-32.35ZM336.03-1.95L336.03 0 324.28 0 324.28-1.95 326.73-2.1Q327.78-2.17 327.78-3.2L327.78-3.2 327.78-21.04 324.33-21.04 324.33-22.8 330.44-24.71 332.41-24.71 332.41-3.2Q332.41-2.73 332.72-2.44 333.02-2.15 333.46-2.1L333.46-2.1 336.03-1.95ZM355.92-7.25L355.92-7.25Q355.92-3.56 353.38-1.48 350.84 0.61 346.38 0.61L346.38 0.61Q344.08 0.61 342.14 0.13 340.2-0.34 339.44-0.66L339.44-0.66 339.44-7.3 341.98-7.3 342.59-3.05Q343.35-2.56 344.46-2.11 345.57-1.66 347.04-1.66L347.04-1.66Q349.18-1.66 350.36-2.86 351.53-4.05 351.53-5.54L351.53-5.54Q351.53-7.52 350.11-8.53 348.7-9.55 346.08-10.79L346.08-10.79 345.42-11.11Q342.69-12.4 341.24-13.81 339.78-15.21 339.78-17.46L339.78-17.46Q339.78-20.8 342.13-22.75 344.47-24.71 348.79-24.71L348.79-24.71Q350.99-24.71 352.71-24.3 354.43-23.9 355.19-23.56L355.19-23.56 355.19-17.65 352.58-17.65 352.19-21.14Q351.65-21.56 350.6-21.92 349.55-22.29 348.38-22.29L348.38-22.29Q346.33-22.29 345.33-21.35 344.33-20.41 344.33-18.95L344.33-18.95Q344.33-17.26 345.53-16.27 346.74-15.28 349.92-13.84L349.92-13.84Q352.53-12.65 354.23-11.17 355.92-9.69 355.92-7.25Z" opacity="1" transform="matrix(1,0,0,1,0,0)" fill="#375a82" class="wordmark-text-0" data-fill-palette-color="primary" id="text-0"></path></svg></g></svg></g></svg></g></svg></g><g><svg viewBox="0 0 134.3667511146604 110.11702324965515" height="110.11702324965515" width="134.3667511146604"><g><svg xmlns="http://www.w3.org/2000/svg" xmlns:xlink="http://www.w3.org/1999/xlink" version="1.1" x="0" y="0" viewBox="4.46 12.623 89.08200000000001 73.005" enable-background="new 0 0 100 100" xml:space="preserve" height="110.11702324965515" width="134.3667511146604" class="icon-icon-0" data-fill-palette-color="accent" id="icon-0"><path fill="#95b4a2" d="M11.397 69.293V85.627H53.856V69.293zM24.458 82.123H14.666V72.983H24.458zM34.261 82.123H27.726V72.983H34.261zM47.321 82.123H37.518V72.983H47.321z" data-fill-palette-color="accent"></path><rect x="50.725" y="49.303" fill="#95b4a2" width="3.132" height="17.947" data-fill-palette-color="accent"></rect><rect x="36.504" y="59.751" fill="#95b4a2" width="12.098" height="2.614" data-fill-palette-color="accent"></rect><rect x="36.504" y="55.036" fill="#95b4a2" width="12.098" height="2.565" data-fill-palette-color="accent"></rect><rect x="36.504" y="64.583" fill="#95b4a2" width="12.098" height="2.667" data-fill-palette-color="accent"></rect><rect x="31.012" y="53.684" fill="#95b4a2" width="3.23" height="13.566" data-fill-palette-color="accent"></rect><polygon fill="#95b4a2" points="28.806,67.293 28.806,64.53 16.831,64.53 16.831,67.25 " data-fill-palette-color="accent"></polygon><rect x="11.397" y="60.377" fill="#95b4a2" width="3.268" height="6.873" data-fill-palette-color="accent"></rect><path fill="#95b4a2" d="M77.023 35.129L70.074 12.623 64.133 35.129H57.787L56.844 33.702H11.999L4.46 41.664H60.865V48.213H64.133V77.918H61.978L57.125 85.628H86.227L81.374 77.918H77.204V48.212H80.471V41.663H83.74V48.199H93.542V35.129zM16.397 38.766H11.096L13.268 36.595H18.565zM25.542 38.766H20.241L22.413 36.595H27.711zM34.696 38.766H29.395L31.568 36.595H36.866zM43.84 38.766H38.539L40.712 36.595H46.01zM47.797 38.766L49.971 36.595H55.288L56.725 38.766zM70.259 21.438L71.911 26.788 67.828 30.637zM64.128 44.928V38.4H73.94V44.928zM73.936 48.695L67.401 54.245V48.695zM73.551 77.917H67.4V76.859L73.935 70.705zM73.936 66.191L67.401 72.341V67.39L73.936 61.24zM73.936 57.145L67.4 63.293V58.344L73.935 52.192V57.145zM67.409 35.129L72.892 29.96 74.486 35.129z" data-fill-palette-color="accent"></path></svg></g></svg></g></svg></g><defs></defs></svg><rect width="395.52" height="80.68202435540321" fill="none" stroke="none" visibility="hidden"></rect></g></svg></g></svg>